<?xml version="1.0" encoding="UTF-8"?>
<svg width="32px" height="32px" viewBox="0 0 32 32" version="1.1" xmlns="http://www.w3.org/2000/svg" xmlns:xlink="http://www.w3.org/1999/xlink">
    <title>Default-calendar-icon</title>
    <g id="Page-1" stroke="none" stroke-width="1" fill="none" fill-rule="evenodd">
        <g id="Artboard-Copy-11" transform="translate(-41.000000, 0.000000)" fill="#009DFF">
            <g id="Default-calendar-icon" transform="translate(41.000000, 0.000000)">
                <g id="Default-icon-notification" opacity="0">
                    <circle id="Oval-Copy-3" cx="16" cy="16" r="16"></circle>
                </g>
                <g id="Group-2" transform="translate(5.000000, 6.000000)" fill-rule="nonzero">
                    <path d="M6,0 C6.55228475,0 7,0.44771525 7,1 L7,2 C7,2.55228475 6.55228475,3 6,3 L4,3 C3.44771525,3 3,2.55228475 3,2 L3,1 C3,0.44771525 3.44771525,0 4,0 L6,0 Z M6,1 L4,1 L4,2 L6,2 L6,1 Z" id="Rectangle"></path>
                    <path d="M18,0 C18.5522847,0 19,0.44771525 19,1 L19,2 C19,2.55228475 18.5522847,3 18,3 L16,3 C15.4477153,3 15,2.55228475 15,2 L15,1 C15,0.44771525 15.4477153,0 16,0 L18,0 Z M18,1 L16,1 L16,2 L18,2 L18,1 Z" id="Rectangle-Copy"></path>
                    <path d="M21,2 C21.5522847,2 22,2.44771525 22,3 L22,19 C22,19.5522847 21.5522847,20 21,20 L1,20 C0.44771525,20 0,19.5522847 0,19 L0,3 C0,2.44771525 0.44771525,2 1,2 L21,2 Z M21,3 L1,3 L1,19 L21,19 L21,3 Z" id="Rectangle"></path>
                    <polygon id="Line" points="22 7 22 8 0 8 0 7"></polygon>
                    <polygon id="Line-Copy" points="8 7.86666667 8 19.1333333 7 19.1333333 7 7.86666667"></polygon>
                    <polygon id="Line-Copy-4" points="15 7.86666667 15 19.1333333 14 19.1333333 14 7.86666667"></polygon>
                    <polygon id="Line-Copy-2" points="22 11 22 12 0 12 0 11"></polygon>
                    <polygon id="Line-Copy-3" points="22 15 22 16 0 16 0 15"></polygon>
                </g>
            </g>
        </g>
    </g>
</svg>