<?xml version="1.0" encoding="UTF-8"?>
<svg width="32px" height="32px" viewBox="0 0 32 32" version="1.1" xmlns="http://www.w3.org/2000/svg" xmlns:xlink="http://www.w3.org/1999/xlink">
    <title>Default-settings-icon</title>
    <g id="Page-1" stroke="none" stroke-width="1" fill="none" fill-rule="evenodd">
        <g id="Artboard-Copy-10" transform="translate(-41.000000, 0.000000)" fill="#009DFF">
            <g id="Default-settings-icon" transform="translate(41.000000, 0.000000)">
                <g id="Default-icon-notification" opacity="0">
                    <circle id="Oval-Copy-3" cx="16" cy="16" r="16"></circle>
                </g>
                <g id="Group" transform="translate(5.000000, 5.000000)">
                    <path d="M22,12.6963735 L22,9.30304492 L18.8963603,8.22384518 C18.8022842,7.92067468 18.6852343,7.6259377 18.543902,7.34166992 L20.0348704,4.49637478 L17.6346933,2.09631133 L14.7881271,3.58613624 C14.4643133,3.42749883 14.1249413,3.30317711 13.7746641,3.21520677 L12.7021672,0 L9.30350357,0 L8.22359107,3.10338993 C7.9211516,3.19674027 7.62656391,3.31495496 7.3428815,3.45512587 L4.49631534,1.96486474 L1.96556579,4.49637478 L3.45609803,7.34166992 C3.31491114,7.6259377 3.19771584,7.92067468 3.10334891,8.22384518 L0,9.30304492 L0,12.6978275 L3.10858344,13.7780451 C3.16863512,13.9541312 3.23930127,14.1203297 3.30982201,14.2863828 C3.37161854,14.4309159 3.4348691,14.5747219 3.48663278,14.7294334 L1.96556579,17.634054 L4.36632453,20.0344082 L7.21259988,18.5441471 C7.53786772,18.7036569 7.87854834,18.8282695 8.23042504,18.9169668 L9.30350357,22 L12.6979505,22 L13.7788808,18.8918117 C13.9556916,18.8307414 14.1214517,18.7608013 14.2869209,18.689698 C14.4313067,18.6283369 14.5751109,18.5655217 14.7298203,18.5133211 L17.6336755,20.0344082 L20.0348704,17.6343448 L18.543902,14.7883226 C18.7037005,14.4629051 18.828166,14.1220745 18.9165714,13.7694662 L22,12.6963735 Z M18.7634816,17.4933539 L17.4929829,18.7630903 L14.8964654,17.402585 L14.6912762,17.4545788 C14.3976661,17.5281633 14.1394538,17.6364104 13.8827102,17.7461262 C13.6782554,17.8343982 13.4746818,17.9236983 13.2408513,17.9821547 L12.9500319,18.0545641 L11.925114,21 L10.0759141,21 L9.04423979,18.0341485 L8.72830421,17.9752515 C8.2762123,17.889917 7.84483025,17.7339355 7.447524,17.5090695 L7.18431779,17.3610193 L4.50701712,18.7630903 L3.23622464,17.4923258 L4.59661298,14.896453 L4.54505864,14.6914151 C4.47147253,14.3973709 4.36351686,14.1388705 4.25379864,13.881692 C4.16567157,13.6773886 4.07563507,13.4736726 4.01791183,13.2398472 L3.94432572,12.9487405 L1,11.9248733 L1,10.0754204 L3.94256318,9.05199383 L4.01688368,8.76338401 C4.12263617,8.34919586 4.28332122,7.94969523 4.49203552,7.5757509 L4.63788583,7.31357861 L3.23622464,4.63854006 L4.63862022,3.23690975 L7.31474586,4.63824631 L7.57765832,4.49151796 C7.9501421,4.2825145 8.34891714,4.12286113 8.7638488,4.01711096 L9.0517306,3.9422046 L10.0759141,1 L11.9186514,1 L12.9522351,4.09715796 L13.273899,4.15767056 C13.7234939,4.24050819 14.1545822,4.39722406 14.5543854,4.62209003 L14.8164166,4.77014027 L17.4937173,3.3688037 L18.7634816,4.63854006 L17.3621142,7.31357861 L17.5088458,7.5757509 C17.7174132,7.94969523 17.8770701,8.34919586 17.9828226,8.76338401 L18.0574368,9.05199383 L21,10.0754204 L21,11.9238452 L18.0345238,12.9557906 L17.9753318,13.2724536 C17.8902891,13.7246824 17.7340104,14.1550268 17.5094333,14.5536462 L17.361086,14.8165528 L18.7634816,17.4933539 Z" id="Fill-459"></path>
                    <path d="M11,7 C13.209139,7 15,8.790861 15,11 C15,13.209139 13.209139,15 11,15 C8.790861,15 7,13.209139 7,11 C7,8.790861 8.790861,7 11,7 Z M11,8 C9.34314575,8 8,9.34314575 8,11 C8,12.6568542 9.34314575,14 11,14 C12.6568542,14 14,12.6568542 14,11 C14,9.34314575 12.6568542,8 11,8 Z" id="Oval" fill-rule="nonzero"></path>
                </g>
            </g>
        </g>
    </g>
</svg>