<?xml version="1.0" encoding="utf-8"?>
<!-- Generator: Adobe Illustrator 25.3.1, SVG Export Plug-In . SVG Version: 6.00 Build 0)  -->
<svg version="1.1" id="Capa_1" xmlns="http://www.w3.org/2000/svg" xmlns:xlink="http://www.w3.org/1999/xlink" x="0px" y="0px"
	 viewBox="0 0 64 64" style="enable-background:new 0 0 64 64;" xml:space="preserve">
<style type="text/css">
	.st0{fill:#009DFF;}
	.st1{fill:#C4E8FF;}
	.st2{clip-path:url(#SVGID_2_);}
	.st3{fill:#FFFFFF;}
	.st4{clip-path:url(#SVGID_4_);fill:#007ECC;}
	.st5{clip-path:url(#SVGID_6_);fill:#4DBAFF;}
	.st6{clip-path:url(#SVGID_8_);fill:#009DFF;}
	.st7{clip-path:url(#SVGID_10_);fill:#C4E8FF;}
	.st8{clip-path:url(#SVGID_12_);fill:#EBF7FF;}
	.st9{clip-path:url(#SVGID_14_);}
	.st10{clip-path:url(#SVGID_16_);}
	.st11{clip-path:url(#SVGID_18_);}
	.st12{clip-path:url(#SVGID_20_);}
	.st13{fill:#D8D8D8;}
	.st14{clip-path:url(#SVGID_22_);}
	.st15{opacity:0.5;fill:#4DBAFF;}
	.st16{clip-path:url(#SVGID_22_);fill:#007ECC;}
	.st17{clip-path:url(#SVGID_24_);}
	.st18{clip-path:url(#SVGID_24_);fill:#007ECC;}
	.st19{clip-path:url(#SVGID_26_);}
	.st20{clip-path:url(#SVGID_26_);fill:#007ECC;}
	.st21{clip-path:url(#SVGID_28_);}
	.st22{clip-path:url(#SVGID_28_);fill:#007ECC;}
	.st23{clip-path:url(#SVGID_30_);}
	.st24{clip-path:url(#SVGID_30_);fill:#007ECC;}
	.st25{clip-path:url(#SVGID_32_);}
	.st26{clip-path:url(#SVGID_32_);fill:#007ECC;}
	.st27{clip-path:url(#SVGID_34_);}
	.st28{clip-path:url(#SVGID_34_);fill:#007ECC;}
	.st29{clip-path:url(#SVGID_36_);}
	.st30{clip-path:url(#SVGID_36_);fill:#007ECC;}
</style>
<g>
	<defs>
		<rect id="SVGID_23_" width="64" height="64"/>
	</defs>
	<clipPath id="SVGID_2_">
		<use xlink:href="#SVGID_23_"  style="overflow:visible;"/>
	</clipPath>
	<g class="st2">
		<path class="st15" d="M44.5,26v20.5v0c0,0.83-0.67,1.5-1.5,1.5h0H22h0c-0.83,0-1.5-0.67-1.5-1.5v0v-29v0c0-0.83,0.67-1.5,1.5-1.5
			h0h12.5v8.5c0,0.83,0.67,1.5,1.5,1.5H44.5z M25,22h5c0.28,0,0.5-0.22,0.5-0.5v-1c0-0.28-0.22-0.5-0.5-0.5h-5
			c-0.28,0-0.5,0.22-0.5,0.5v1C24.5,21.78,24.72,22,25,22z M30,26c0.28,0,0.5-0.22,0.5-0.5v-1c0-0.28-0.22-0.5-0.5-0.5h-5
			c-0.28,0-0.5,0.22-0.5,0.5v1c0,0.28,0.22,0.5,0.5,0.5H30z M34.19,36.46l-2.81-0.84c-0.32-0.1-0.55-0.42-0.55-0.8
			c0-0.45,0.33-0.82,0.74-0.82h1.76c0.24,0,0.6,0.1,0.8,0.23c0.07,0.05,0.2,0.09,0.29,0.09c0.11,0,0.26-0.06,0.35-0.13l0.73-0.7
			c0.09-0.08,0.16-0.24,0.16-0.36c0-0.13-0.09-0.31-0.19-0.39c-0.48-0.36-1.36-0.68-1.96-0.71V30.5c0-0.28-0.22-0.5-0.5-0.5h-1
			c-0.28,0-0.5,0.22-0.5,0.5v1.51c-1.48,0.04-2.67,1.28-2.67,2.82c0,1.25,0.81,2.36,1.97,2.71l2.81,0.84
			c0.32,0.1,0.55,0.42,0.55,0.8c0,0.45-0.33,0.82-0.74,0.82h-1.76c-0.24,0-0.6-0.1-0.8-0.23c-0.07-0.05-0.2-0.09-0.29-0.09
			c-0.11,0-0.26,0.06-0.35,0.13l-0.73,0.7c-0.09,0.08-0.16,0.24-0.16,0.36c0,0.13,0.09,0.31,0.19,0.39
			c0.48,0.36,1.36,0.68,1.96,0.71v1.52c0,0.28,0.22,0.5,0.5,0.5h1c0.28,0,0.5-0.22,0.5-0.5v-1.51c1.48-0.04,2.67-1.28,2.67-2.82
			C36.17,37.93,35.35,36.81,34.19,36.46z M44.5,24h-8v-8h0.38h0c0.34,0,0.82,0.2,1.06,0.44l6.12,6.12c0.24,0.24,0.44,0.71,0.44,1.06
			V24z"/>
	</g>
	<path style="clip-path:url(#SVGID_2_);fill:#007ECC;" d="M32,30h1c0.28,0,0.5,0.22,0.5,0.5v1.52c0.6,0.03,1.48,0.35,1.96,0.71
		c0.11,0.08,0.19,0.26,0.19,0.39c0,0.12-0.07,0.28-0.16,0.36l-0.74,0.7c-0.08,0.07-0.24,0.13-0.35,0.13c-0.09,0-0.22-0.04-0.29-0.09
		c-0.2-0.13-0.56-0.23-0.8-0.23h-1.76c-0.41,0-0.74,0.37-0.74,0.82c0,0.37,0.23,0.7,0.55,0.8l2.81,0.84
		c1.16,0.35,1.97,1.46,1.97,2.71c0,1.53-1.19,2.78-2.67,2.82v1.51c0,0.28-0.22,0.5-0.5,0.5h-1c-0.28,0-0.5-0.22-0.5-0.5v-1.52
		c-0.6-0.03-1.48-0.35-1.96-0.71c-0.11-0.08-0.19-0.26-0.19-0.39c0-0.12,0.07-0.28,0.16-0.36l0.73-0.7
		c0.08-0.07,0.24-0.13,0.35-0.13c0.09,0,0.22,0.04,0.29,0.09c0.2,0.13,0.56,0.23,0.8,0.23h1.76c0.41,0,0.74-0.37,0.74-0.82
		c0-0.37-0.23-0.7-0.55-0.8l-2.81-0.84c-1.16-0.35-1.97-1.46-1.97-2.71c0-1.53,1.19-2.78,2.67-2.82l0-1.51
		C31.5,30.22,31.72,30,32,30z"/>
</g>
</svg>
