<?xml version="1.0" encoding="UTF-8"?>
<svg width="32px" height="32px" viewBox="0 0 32 32" version="1.1" xmlns="http://www.w3.org/2000/svg" xmlns:xlink="http://www.w3.org/1999/xlink">
    <title>Default-notification-icon</title>
    <g id="Page-1" stroke="none" stroke-width="1" fill="none" fill-rule="evenodd">
        <g id="Artboard-Copy-8" transform="translate(-41.000000, 0.000000)" fill="#009DFF">
            <g id="Default-notification-icon" transform="translate(41.000000, 0.000000)">
                <circle id="Oval-Copy-3" opacity="0" cx="16" cy="16" r="16"></circle>
                <g id="Group-2" transform="translate(7.000000, 5.500000)" fill-rule="nonzero">
                    <g id="Group-3">
                        <path d="M9,-0.5 C10.5103835,-0.5 11.4186723,-0.125893128 11.4947988,0.763476382 L11.5,0.887961075 L11.5,4 C11.5,4.27614237 11.2761424,4.5 11,4.5 C10.7545401,4.5 10.5503916,4.32312484 10.5080557,4.08987563 L10.5,4 L10.5,0.887961075 C10.5,0.683084515 10.0876294,0.5 9,0.5 C7.98034743,0.5 7.55418405,0.660914124 7.50489665,0.849841474 L7.5,0.887961075 L7.5,4 C7.5,4.27614237 7.27614237,4.5 7,4.5 C6.75454011,4.5 6.55039163,4.32312484 6.50805567,4.08987563 L6.5,4 L6.5,0.887961075 C6.5,-0.0911104648 7.42096275,-0.5 9,-0.5 Z" id="Path-3"></path>
                        <path d="M9,3.5 C4.05317821,3.5 2.5761393,5.97712675 2.51684957,11.1552878 L2.51384044,11.5927506 L2.51388969,12.4699342 C2.51388964,14.5658486 2.0569834,15.5140238 0.867003772,16.5595312 L0.28016138,17.0539442 L0.0295831247,17.2717969 L-0.1789572,17.4668293 C-0.243866369,17.5304221 -0.30537229,17.5937895 -0.367078036,17.6605096 C-0.663184998,17.9806788 -0.436105089,18.5 -1.11022302e-16,18.5 L6.54932592,18.4713355 L17.6812054,18.3899766 L18.0007754,18.3894814 C18.5062393,18.3886975 18.691468,17.7240544 18.2592673,17.4619536 C16.0537908,16.1244801 15.5208384,15.2986455 15.5208384,12.4696978 L15.5203382,11.7356129 L15.5118224,10.9597139 C15.5102088,10.8832839 15.5083435,10.80947 15.506197,10.7376276 L15.4897101,10.3250769 L15.4650679,9.92891312 C15.460203,9.86253304 15.4549396,9.79554696 15.4492485,9.7273105 C15.1159286,5.73084091 13.3083819,3.5 9,3.5 Z M9,4.5 C12.6243105,4.5 14.0866191,6.19565547 14.4291054,9.55533035 L14.4677283,10.0020566 L14.4911524,10.3805617 L14.5122221,10.9924819 L14.5203667,11.7470866 L14.5208384,12.4696978 L14.5228852,12.7553096 C14.555805,14.9918183 14.9912364,16.177122 16.2202124,17.2454536 L16.4,17.396 L3.96621579,17.4872538 L1.308,17.498 L1.34367229,17.4682598 C2.87089186,16.1843192 3.51388963,14.9782068 3.51388963,12.4696978 L3.51680313,11.1647085 L3.52875222,10.6137853 C3.53167987,10.5241366 3.53508607,10.4355697 3.5389866,10.3480785 L3.56844752,9.83598942 C3.83578276,6.09138982 5.1678931,4.5 9,4.5 Z" id="Path-4"></path>
                        <path d="M11.8286475,17.498172 C11.9396111,17.8114674 12,18.1486814 12,18.5 C12,20.1568542 10.6568542,21.5 9,21.5 C7.34314575,21.5 6,20.1568542 6,18.5 C6,18.1486814 6.06038886,17.8114674 6.17135248,17.498172 L11.8286475,17.498172 Z M11,18.498 L7,18.498 C7,19.5543618 7.81587779,20.4181651 8.85073766,20.4945143 L9,20.5 C10.0543618,20.5 10.9181651,19.6841222 10.9945143,18.6492623 L11,18.498 Z" id="Combined-Shape"></path>
                    </g>
                </g>
            </g>
        </g>
    </g>
</svg>