<?xml version="1.0" encoding="utf-8"?>
<!-- Generator: Adobe Illustrator 25.3.1, SVG Export Plug-In . SVG Version: 6.00 Build 0)  -->
<svg version="1.1" id="Capa_1" xmlns="http://www.w3.org/2000/svg" xmlns:xlink="http://www.w3.org/1999/xlink" x="0px" y="0px"
	 viewBox="0 0 64 64" style="enable-background:new 0 0 64 64;" xml:space="preserve">
<style type="text/css">
	.st0{fill:#009DFF;}
	.st1{fill:#C4E8FF;}
	.st2{clip-path:url(#SVGID_2_);}
	.st3{fill:#FFFFFF;}
	.st4{clip-path:url(#SVGID_4_);fill:#007ECC;}
	.st5{clip-path:url(#SVGID_6_);fill:#4DBAFF;}
	.st6{clip-path:url(#SVGID_8_);fill:#009DFF;}
	.st7{clip-path:url(#SVGID_10_);fill:#C4E8FF;}
	.st8{clip-path:url(#SVGID_12_);fill:#EBF7FF;}
	.st9{clip-path:url(#SVGID_14_);}
	.st10{clip-path:url(#SVGID_16_);}
	.st11{clip-path:url(#SVGID_18_);}
	.st12{clip-path:url(#SVGID_20_);}
	.st13{fill:#D8D8D8;}
	.st14{clip-path:url(#SVGID_22_);}
	.st15{opacity:0.5;fill:#4DBAFF;}
	.st16{clip-path:url(#SVGID_22_);fill:#007ECC;}
	.st17{clip-path:url(#SVGID_24_);}
	.st18{clip-path:url(#SVGID_24_);fill:#007ECC;}
	.st19{clip-path:url(#SVGID_26_);}
	.st20{clip-path:url(#SVGID_26_);fill:#007ECC;}
	.st21{clip-path:url(#SVGID_28_);}
	.st22{clip-path:url(#SVGID_28_);fill:#007ECC;}
	.st23{clip-path:url(#SVGID_30_);}
	.st24{clip-path:url(#SVGID_30_);fill:#007ECC;}
	.st25{clip-path:url(#SVGID_32_);}
	.st26{clip-path:url(#SVGID_32_);fill:#007ECC;}
	.st27{clip-path:url(#SVGID_34_);}
	.st28{clip-path:url(#SVGID_34_);fill:#007ECC;}
	.st29{clip-path:url(#SVGID_36_);}
	.st30{clip-path:url(#SVGID_36_);fill:#007ECC;}
</style>
<g>
	<defs>
		<rect id="SVGID_35_" width="64" height="64"/>
	</defs>
	<clipPath id="SVGID_2_">
		<use xlink:href="#SVGID_35_"  style="overflow:visible;"/>
	</clipPath>
	<g class="st2">
		<path class="st15" d="M50.5,19v16c0,0.55-0.45,1-1,1h-24c-0.55,0-1-0.45-1-1V19c0-0.55,0.45-1,1-1h24C50.05,18,50.5,18.45,50.5,19
			z"/>
	</g>
	<path style="clip-path:url(#SVGID_2_);fill:#007ECC;" d="M52.5,41v2c0,0.55-0.45,1-1,1h-5.17c0.1,0.27,0.18,0.72,0.18,1
		c0,1.66-1.34,3-3,3s-3-1.34-3-3c0-0.28,0.08-0.73,0.18-1H28.32c0.1,0.27,0.18,0.72,0.18,1c0,1.66-1.34,3-3,3s-3-1.34-3-3
		c0-0.28,0.08-0.73,0.18-1H17.5c-0.55,0-1-0.45-1-1V20h-3c-0.55,0-1-0.45-1-1v-2c0-0.55,0.45-1,1-1h6c0.55,0,1,0.45,1,1v23h31
		C52.05,40,52.5,40.45,52.5,41z M37.5,24l-3,2v-8h6v8L37.5,24z"/>
</g>
</svg>
