<?xml version="1.0" encoding="UTF-8"?>
<svg width="32px" height="32px" viewBox="0 0 32 32" version="1.1" xmlns="http://www.w3.org/2000/svg" xmlns:xlink="http://www.w3.org/1999/xlink">
    <title>Default-search-icon</title>
    <g id="Page-1" stroke="none" stroke-width="1" fill="none" fill-rule="evenodd">
        <g id="Artboard-Copy-9" transform="translate(-41.000000, 0.000000)" fill="#009DFF">
            <g id="Default-search-icon" transform="translate(41.000000, 0.000000)">
                <circle id="Oval-Copy-3" opacity="0" cx="16" cy="16" r="16"></circle>
                <g id="Group-4" transform="translate(5.000000, 5.000000)" fill-rule="nonzero">
                    <g id="Group-5">
                        <path d="M8.8,0 C13.6601058,0 17.6,3.9398942 17.6,8.8 C17.6,13.6601058 13.6601058,17.6 8.8,17.6 C3.9398942,17.6 0,13.6601058 0,8.8 C0,3.9398942 3.9398942,0 8.8,0 Z M8.8,1 C4.49217895,1 1,4.49217895 1,8.8 C1,13.107821 4.49217895,16.6 8.8,16.6 C13.107821,16.6 16.6,13.107821 16.6,8.8 C16.6,4.49217895 13.107821,1 8.8,1 Z" id="Oval"></path>
                        <path d="M14.4464466,14.4464466 C14.620013,14.2728803 14.8894374,14.2535951 15.0843055,14.3885912 L15.1535534,14.4464466 L19.8535534,19.1464466 C20.0488155,19.3417088 20.0488155,19.6582912 19.8535534,19.8535534 C19.679987,20.0271197 19.4105626,20.0464049 19.2156945,19.9114088 L19.1464466,19.8535534 L14.4464466,15.1535534 C14.2511845,14.9582912 14.2511845,14.6417088 14.4464466,14.4464466 Z" id="Line"></path>
                    </g>
                </g>
            </g>
        </g>
    </g>
</svg>