<?xml version="1.0" encoding="utf-8"?>
<!-- Generator: Adobe Illustrator 25.3.1, SVG Export Plug-In . SVG Version: 6.00 Build 0)  -->
<svg version="1.1" id="Capa_1" xmlns="http://www.w3.org/2000/svg" xmlns:xlink="http://www.w3.org/1999/xlink" x="0px" y="0px"
	 viewBox="0 0 64 64" style="enable-background:new 0 0 64 64;" xml:space="preserve">
<style type="text/css">
	.st0{fill:#009DFF;}
	.st1{fill:#C4E8FF;}
	.st2{clip-path:url(#SVGID_2_);}
	.st3{fill:#FFFFFF;}
	.st4{clip-path:url(#SVGID_4_);fill:#007ECC;}
	.st5{clip-path:url(#SVGID_6_);fill:#4DBAFF;}
	.st6{clip-path:url(#SVGID_8_);fill:#009DFF;}
	.st7{clip-path:url(#SVGID_10_);fill:#C4E8FF;}
	.st8{clip-path:url(#SVGID_12_);fill:#EBF7FF;}
	.st9{clip-path:url(#SVGID_14_);}
	.st10{clip-path:url(#SVGID_16_);}
	.st11{clip-path:url(#SVGID_18_);}
	.st12{clip-path:url(#SVGID_20_);}
	.st13{fill:#D8D8D8;}
	.st14{clip-path:url(#SVGID_22_);}
	.st15{opacity:0.5;fill:#4DBAFF;}
	.st16{clip-path:url(#SVGID_22_);fill:#007ECC;}
	.st17{clip-path:url(#SVGID_24_);}
	.st18{clip-path:url(#SVGID_24_);fill:#007ECC;}
	.st19{clip-path:url(#SVGID_26_);}
	.st20{clip-path:url(#SVGID_26_);fill:#007ECC;}
	.st21{clip-path:url(#SVGID_28_);}
	.st22{clip-path:url(#SVGID_28_);fill:#007ECC;}
	.st23{clip-path:url(#SVGID_30_);}
	.st24{clip-path:url(#SVGID_30_);fill:#007ECC;}
	.st25{clip-path:url(#SVGID_32_);}
	.st26{clip-path:url(#SVGID_32_);fill:#007ECC;}
	.st27{clip-path:url(#SVGID_34_);}
	.st28{clip-path:url(#SVGID_34_);fill:#007ECC;}
	.st29{clip-path:url(#SVGID_36_);}
	.st30{clip-path:url(#SVGID_36_);fill:#007ECC;}
</style>
<g>
	<defs>
		<rect id="SVGID_25_" width="64" height="64"/>
	</defs>
	<clipPath id="SVGID_2_">
		<use xlink:href="#SVGID_25_"  style="overflow:visible;"/>
	</clipPath>
	<g class="st2">
		<path class="st15" d="M48.5,27v16c0,1.65-1.42,3-3.17,3H20.5c-2.21,0-4-1.79-4-4V22c0-2.21,1.79-4,4-4h23c1.66,0,3,1.34,3,3
			c0,0.55-0.45,1-1,1h-24c-0.55,0-1,0.45-1,1s0.45,1,1,1h23.83C47.08,24,48.5,25.35,48.5,27z M44.5,35c0-1.1-0.9-2-2-2s-2,0.9-2,2
			s0.9,2,2,2S44.5,36.1,44.5,35z"/>
	</g>
	<circle style="clip-path:url(#SVGID_2_);fill:#007ECC;" cx="42.5" cy="35" r="2"/>
</g>
</svg>
